Rokkitt-ExtraLight.ufo
<glyph name="exclam" format="1">
  <advance width="185"/>
  <unicode hex="0021"/>
  <outline>
    <contour>
      <point x="82" y="330" type="line"/>
      <point x="106" y="330" type="line"/>
      <point x="125" y="748" type="line"/>
      <point x="125" y="1163" type="line"/>
      <point x="62" y="1163" type="line"/>
      <point x="62" y="748" type="line"/>
    </contour>
    <contour>
      <point x="94" y="-15" type="curve" smooth="yes"/>
      <point x="127" y="-15"/>
      <point x="150" y="6"/>
      <point x="150" y="36" type="curve" smooth="yes"/>
      <point x="150" y="65"/>
      <point x="127" y="86"/>
      <point x="94" y="86" type="curve" smooth="yes"/>
      <point x="63" y="86"/>
      <point x="41" y="65"/>
      <point x="41" y="36" type="curve" smooth="yes"/>
      <point x="41" y="6"/>
      <point x="63" y="-15"/>
    </contour>
  </outline>
</glyph>
<glyph name="asterisk" format="1">
  <advance width="940"/>
  <unicode hex="002A"/>
  <outline>
    <contour>
      <point x="245" y="416" type="line"/>
      <point x="470" y="763" type="line"/>
      <point x="694" y="416" type="line"/>
      <point x="766" y="470" type="line"/>
      <point x="495" y="786" type="line"/>
      <point x="894" y="912" type="line"/>
      <point x="864" y="992" type="line"/>
      <point x="488" y="818" type="line"/>
      <point x="518" y="1232" type="line"/>
      <point x="422" y="1232" type="line"/>
      <point x="453" y="818" type="line"/>
      <point x="75" y="992" type="line"/>
      <point x="45" y="912" type="line"/>
      <point x="444" y="786" type="line"/>
      <point x="174" y="470" type="line"/>
    </contour>
  </outline>
</glyph>
<glyph name="two" format="1">
  <advance width="971"/>
  <unicode hex="0032"/>
  <outline>
    <contour>
      <point x="120" y="0" type="line"/>
      <point x="831" y="0" type="line"/>
      <point x="831" y="256" type="line"/>
      <point x="783" y="256" type="line"/>
      <point x="783" y="46" type="line"/>
      <point x="191" y="46" type="line"/>
      <point x="567" y="422" type="line" smooth="yes"/>
      <point x="742" y="597"/>
      <point x="829" y="726"/>
      <point x="829" y="852" type="curve" smooth="yes"/>
      <point x="829" y="1050"/>
      <point x="697" y="1174"/>
      <point x="484" y="1174" type="curve" smooth="yes"/>
      <point x="268" y="1174"/>
      <point x="133" y="1047"/>
      <point x="133" y="846" type="curve" smooth="yes"/>
      <point x="133" y="815"/>
      <point x="139" y="773"/>
      <point x="150" y="734" type="curve"/>
      <point x="204" y="734" type="line"/>
      <point x="195" y="779"/>
      <point x="189" y="820"/>
      <point x="189" y="843" type="curve" smooth="yes"/>
      <point x="189" y="1018"/>
      <point x="303" y="1125"/>
      <point x="484" y="1125" type="curve" smooth="yes"/>
      <point x="664.261" y="1125"/>
      <point x="771.009" y="1016.38"/>
      <point x="771.009" y="849.918" type="curve" smooth="yes"/>
      <point x="771.009" y="739.511"/>
      <point x="691.969" y="620.975"/>
      <point x="528" y="458" type="curve" smooth="yes"/>
      <point x="120" y="49" type="line"/>
    </contour>
  </outline>
</glyph>
<glyph name="H" format="1">
  <advance width="1495"/>
  <unicode hex="0048"/>
  <outline>
    <contour>
      <point x="122" y="0" type="line"/>
      <point x="532" y="0" type="line"/>
      <point x="532" y="45" type="line"/>
      <point x="358" y="45" type="line"/>
      <point x="358" y="560" type="line"/>
      <point x="1136" y="560" type="line"/>
      <point x="1136" y="45" type="line"/>
      <point x="962" y="45" type="line"/>
      <point x="962" y="0" type="line"/>
      <point x="1372" y="0" type="line"/>
      <point x="1372" y="45" type="line"/>
      <point x="1198" y="45" type="line"/>
      <point x="1198" y="1107" type="line"/>
      <point x="1372" y="1107" type="line"/>
      <point x="1372" y="1152" type="line"/>
      <point x="962" y="1152" type="line"/>
      <point x="962" y="1107" type="line"/>
      <point x="1136" y="1107" type="line"/>
      <point x="1136" y="606" type="line"/>
      <point x="358" y="606" type="line"/>
      <point x="358" y="1107" type="line"/>
      <point x="532" y="1107" type="line"/>
      <point x="532" y="1152" type="line"/>
      <point x="122" y="1152" type="line"/>
      <point x="122" y="1107" type="line"/>
      <point x="296" y="1107" type="line"/>
      <point x="296" y="45" type="line"/>
      <point x="122" y="45" type="line"/>
    </contour>
  </outline>
</glyph>
<glyph name="I" format="1">
  <advance width="636"/>
  <unicode hex="0049"/>
  <outline>
    <contour>
      <point x="112" y="0" type="line"/>
      <point x="522" y="0" type="line"/>
      <point x="522" y="45" type="line"/>
      <point x="348" y="45" type="line"/>
      <point x="348" y="1107" type="line"/>
      <point x="522" y="1107" type="line"/>
      <point x="522" y="1152" type="line"/>
      <point x="112" y="1152" type="line"/>
      <point x="112" y="1107" type="line"/>
      <point x="286" y="1107" type="line"/>
      <point x="286" y="45" type="line"/>
      <point x="112" y="45" type="line"/>
    </contour>
  </outline>
</glyph>
<glyph name="O" format="1">
  <advance width="1455"/>
  <unicode hex="004F"/>
  <outline>
    <contour>
      <point x="1331" y="572" type="curve" smooth="yes"/>
      <point x="1331" y="858"/>
      <point x="1138" y="1174"/>
      <point x="728" y="1174" type="curve" smooth="yes"/>
      <point x="318" y="1174"/>
      <point x="124" y="859"/>
      <point x="124" y="572" type="curve" smooth="yes"/>
      <point x="124" y="285.465"/>
      <point x="313.385" y="-22.0024"/>
      <point x="725.99" y="-22.0024" type="curve" smooth="yes"/>
      <point x="1140.3" y="-22.0024"/>
      <point x="1331" y="281.741"/>
    </contour>
    <contour>
      <point x="728" y="26" type="curve" smooth="yes"/>
      <point x="353" y="26"/>
      <point x="186" y="302"/>
      <point x="186" y="572" type="curve" smooth="yes"/>
      <point x="186" y="831"/>
      <point x="357" y="1126"/>
      <point x="728" y="1126" type="curve" smooth="yes"/>
      <point x="1094" y="1126"/>
      <point x="1270" y="831"/>
      <point x="1270" y="572" type="curve" smooth="yes"/>
      <point x="1270" y="311"/>
      <point x="1094" y="26"/>
    </contour>
  </outline>
</glyph>
<glyph name="Q" format="1">
  <advance width="1439"/>
  <unicode hex="0051"/>
  <outline>
    <component base="O"/>
    <contour>
      <point x="1160" y="-186" type="curve"/>
      <point x="1150" y="-146" type="line"/>
      <point x="1106.15" y="-159.995"/>
      <point x="1069.26" y="-166.427"/>
      <point x="1036.56" y="-166.427" type="curve" smooth="yes"/>
      <point x="929.06" y="-166.427"/>
      <point x="866.78" y="-96.9115"/>
      <point x="751" y="2" type="curve"/>
      <point x="689" y="0" type="line"/>
      <point x="832.653" y="-124.345"/>
      <point x="908.903" y="-209.321"/>
      <point x="1033.84" y="-209.321" type="curve" smooth="yes"/>
      <point x="1070.67" y="-209.321"/>
      <point x="1111.73" y="-201.937"/>
    </contour>
  </outline>
</glyph>
<glyph name="asciicircum" format="1">
  <advance width="913"/>
  <unicode hex="005E"/>
  <outline>
    <contour>
      <point x="71" y="800" type="line"/>
      <point x="128" y="800" type="line"/>
      <point x="463" y="1227" type="line"/>
      <point x="783" y="800" type="line"/>
      <point x="838" y="800" type="line"/>
      <point x="498" y="1283" type="line"/>
      <point x="429" y="1283" type="line"/>
    </contour>
  </outline>
</glyph>
<glyph name="m" format="1">
  <advance width="1577"/>
  <unicode hex="006D"/>
  <outline>
    <contour>
      <point x="35" y="0" type="line"/>
      <point x="443" y="0" type="line"/>
      <point x="443" y="45" type="line"/>
      <point x="272" y="45" type="line"/>
      <point x="272" y="674.027" type="line"/>
      <point x="397.232" y="738.587"/>
      <point x="514.914" y="778"/>
      <point x="587" y="778" type="curve" smooth="yes"/>
      <point x="708" y="778"/>
      <point x="784" y="708"/>
      <point x="784" y="594" type="curve" smooth="yes"/>
      <point x="784" y="45" type="line"/>
      <point x="610" y="45" type="line"/>
      <point x="610" y="0" type="line"/>
      <point x="996" y="0" type="line"/>
      <point x="996" y="45" type="line"/>
      <point x="843" y="45" type="line"/>
      <point x="843" y="578" type="line" smooth="yes"/>
      <point x="843" y="609.862"/>
      <point x="838.805" y="639.155"/>
      <point x="830.841" y="665.579" type="curve"/>
      <point x="962.049" y="735.132"/>
      <point x="1086.82" y="778"/>
      <point x="1162" y="778" type="curve" smooth="yes"/>
      <point x="1283" y="778"/>
      <point x="1359" y="708"/>
      <point x="1359" y="594" type="curve" smooth="yes"/>
      <point x="1359" y="45" type="line"/>
      <point x="1185" y="45" type="line"/>
      <point x="1185" y="0" type="line"/>
      <point x="1571" y="0" type="line"/>
      <point x="1571" y="45" type="line"/>
      <point x="1418" y="45" type="line"/>
      <point x="1418" y="578" type="line" smooth="yes"/>
      <point x="1418" y="732"/>
      <point x="1320" y="826"/>
      <point x="1172" y="826" type="curve" smooth="yes"/>
      <point x="1075.55" y="826"/>
      <point x="941.542" y="777.715"/>
      <point x="816.485" y="702.284" type="curve"/>
      <point x="777.851" y="781.008"/>
      <point x="699.392" y="826"/>
      <point x="597" y="826" type="curve" smooth="yes"/>
      <point x="508.355" y="826"/>
      <point x="387.987" y="785.215"/>
      <point x="272" y="720.054" type="curve"/>
      <point x="272" y="804" type="line"/>
      <point x="38" y="804" type="line"/>
      <point x="38" y="759" type="line"/>
      <point x="213" y="759" type="line"/>
      <point x="213" y="45" type="line"/>
      <point x="35" y="45" type="line"/>
    </contour>
  </outline>
</glyph>
<glyph name="q" format="1">
  <advance width="1054"/>
  <unicode hex="0071"/>
  <outline>
    <contour>
      <point x="61.9605" y="404.684" type="curve" smooth="yes"/>
      <point x="61.9605" y="152.121"/>
      <point x="242.215" y="-22"/>
      <point x="487" y="-22" type="curve" smooth="yes"/>
      <point x="588.734" y="-22"/>
      <point x="704.555" y="21.8253"/>
      <point x="786" y="90.091" type="curve"/>
      <point x="786" y="-285" type="line"/>
      <point x="648" y="-285" type="line"/>
      <point x="648" y="-330" type="line"/>
      <point x="985" y="-330" type="line"/>
      <point x="985" y="-285" type="line"/>
      <point x="846" y="-285" type="line"/>
      <point x="846" y="759" type="line"/>
      <point x="977" y="759" type="line"/>
      <point x="977" y="804" type="line"/>
      <point x="792" y="804" type="line"/>
      <point x="787.286" y="711.285" type="line"/>
      <point x="700.317" y="780.737"/>
      <point x="573.48" y="826"/>
      <point x="462" y="826" type="curve" smooth="yes"/>
      <point x="229.067" y="826"/>
      <point x="61.9605" y="655.047"/>
    </contour>
    <contour>
      <point x="786" y="668.856" type="curve"/>
      <point x="786" y="137.5" type="line"/>
      <point x="703.536" y="68.8015"/>
      <point x="589.408" y="24"/>
      <point x="491" y="24" type="curve" smooth="yes"/>
      <point x="276" y="24"/>
      <point x="120" y="176"/>
      <point x="120" y="396" type="curve" smooth="yes"/>
      <point x="120" y="624"/>
      <point x="264" y="780"/>
      <point x="466" y="780" type="curve" smooth="yes"/>
      <point x="573.659" y="780"/>
      <point x="697.416" y="735.731"/>
    </contour>
  </outline>
</glyph>
<glyph name="t" format="1">
  <advance width="578"/>
  <unicode hex="0074"/>
  <outline>
    <contour>
      <point x="443" y="0" type="curve" smooth="yes"/>
      <point x="527" y="0" type="line"/>
      <point x="527" y="45" type="line"/>
      <point x="447" y="45" type="line" smooth="yes"/>
      <point x="309" y="45"/>
      <point x="251" y="91"/>
      <point x="251" y="223" type="curve" smooth="yes"/>
      <point x="251" y="759" type="line"/>
      <point x="487" y="759" type="line"/>
      <point x="488" y="804" type="line"/>
      <point x="251" y="804" type="line"/>
      <point x="251" y="1102" type="line"/>
      <point x="192" y="1083" type="line"/>
      <point x="192" y="804" type="line"/>
      <point x="41" y="804" type="line"/>
      <point x="41" y="759" type="line"/>
      <point x="192" y="759" type="line"/>
      <point x="192" y="219" type="line" smooth="yes"/>
      <point x="192" y="50"/>
      <point x="297" y="0"/>
    </contour>
  </outline>
</glyph>
<glyph name="u" format="1">
  <advance width="1028"/>
  <unicode hex="0075"/>
  <outline>
    <contour>
      <point x="441" y="-22" type="curve" smooth="yes"/>
      <point x="565" y="-22"/>
      <point x="674" y="29"/>
      <point x="776" y="101" type="curve"/>
      <point x="782" y="0" type="line"/>
      <point x="984" y="0" type="line"/>
      <point x="984" y="43" type="line"/>
      <point x="833" y="43" type="line"/>
      <point x="833" y="804" type="line"/>
      <point x="623" y="804" type="line"/>
      <point x="623" y="759" type="line"/>
      <point x="773" y="759" type="line"/>
      <point x="773" y="145" type="line"/>
      <point x="671" y="75"/>
      <point x="577" y="25"/>
      <point x="445" y="25" type="curve" smooth="yes"/>
      <point x="310" y="25"/>
      <point x="253" y="116"/>
      <point x="253" y="213" type="curve" smooth="yes"/>
      <point x="253" y="804" type="line"/>
      <point x="37" y="804" type="line"/>
      <point x="37" y="759" type="line"/>
      <point x="193" y="759" type="line"/>
      <point x="193" y="210" type="line" smooth="yes"/>
      <point x="193" y="126"/>
      <point x="238" y="-22"/>
    </contour>
  </outline>
</glyph>
<glyph name="yen" format="1">
  <advance width="1461"/>
  <unicode hex="00A5"/>
  <outline>
    <component base="Y"/>
    <contour>
      <point x="308" y="214" type="line"/>
      <point x="949" y="214" type="line"/>
      <point x="949" y="254" type="line"/>
      <point x="308" y="254" type="line"/>
    </contour>
    <contour>
      <point x="308" y="373" type="line"/>
      <point x="949" y="373" type="line"/>
      <point x="949" y="413" type="line"/>
      <point x="308" y="413" type="line"/>
    </contour>
  </outline>
</glyph>
<glyph name="brokenbar" format="1">
  <advance width="423"/>
  <unicode hex="00A6"/>
  <outline>
    <contour>
      <point x="183" y="-46" type="line"/>
      <point x="238" y="-46" type="line"/>
      <point x="238" y="522" type="line"/>
      <point x="183" y="522" type="line"/>
    </contour>
    <contour>
      <point x="183" y="720" type="line"/>
      <point x="238" y="720" type="line"/>
      <point x="238" y="1288" type="line"/>
      <point x="183" y="1288" type="line"/>
    </contour>
  </outline>
</glyph>
<glyph name="uni00AD" format="1">
  <advance width="886"/>
  <unicode hex="00AD"/>
  <outline>
    <contour>
      <point x="183" y="429" type="line"/>
      <point x="701" y="429" type="line"/>
      <point x="701" y="475" type="line"/>
      <point x="183" y="475" type="line"/>
    </contour>
  </outline>
</glyph>
<glyph name="plusminus" format="1">
  <advance width="691"/>
  <unicode hex="00B1"/>
  <outline>
    <contour>
      <point x="323" y="98" type="line"/>
      <point x="371" y="98" type="line"/>
      <point x="371" y="497" type="line"/>
      <point x="720" y="497" type="line"/>
      <point x="720" y="549" type="line"/>
      <point x="371" y="549" type="line"/>
      <point x="371" y="933" type="line"/>
      <point x="323" y="933" type="line"/>
      <point x="323" y="549" type="line"/>
      <point x="-26" y="549" type="line"/>
      <point x="-26" y="497" type="line"/>
      <point x="323" y="497" type="line"/>
    </contour>
    <contour>
      <point x="-29" y="0" type="line"/>
      <point x="718" y="0" type="line"/>
      <point x="718" y="49" type="line"/>
      <point x="-29" y="49" type="line"/>
    </contour>
  </outline>
</glyph>
<glyph name="periodcentered" format="1">
  <advance width="465"/>
  <unicode hex="00B7"/>
  <outline>
    <contour>
      <point x="242" y="503" type="curve" smooth="yes"/>
      <point x="275" y="503"/>
      <point x="298" y="524"/>
      <point x="298" y="554" type="curve" smooth="yes"/>
      <point x="298" y="583"/>
      <point x="275" y="604"/>
      <point x="242" y="604" type="curve" smooth="yes"/>
      <point x="211" y="604"/>
      <point x="189" y="583"/>
      <point x="189" y="554" type="curve" smooth="yes"/>
      <point x="189" y="524"/>
      <point x="211" y="503"/>
    </contour>
  </outline>
</glyph>
<glyph name="guillemotright" format="1">
  <advance width="765"/>
  <unicode hex="00BB"/>
  <outline>
    <contour>
      <point x="142" y="292" type="line"/>
      <point x="183" y="292" type="line"/>
      <point x="452" y="673" type="line"/>
      <point x="183" y="1049" type="line"/>
      <point x="142" y="1049" type="line"/>
      <point x="355" y="673" type="line"/>
    </contour>
    <contour>
      <point x="395" y="292" type="line"/>
      <point x="436" y="292" type="line"/>
      <point x="706" y="673" type="line"/>
      <point x="436" y="1049" type="line"/>
      <point x="395" y="1049" type="line"/>
      <point x="609" y="673" type="line"/>
    </contour>
  </outline>
</glyph>
<glyph name="breve" format="1">
  <advance width="267"/>
  <unicode hex="02D8"/>
  <outline>
    <contour>
      <point x="137" y="932" type="curve" smooth="yes"/>
      <point x="137.844" y="931.99"/>
      <point x="138.685" y="931.984"/>
      <point x="139.522" y="931.984" type="curve" smooth="yes"/>
      <point x="219.018" y="931.984"/>
      <point x="267.156" y="978.948"/>
      <point x="282" y="1069" type="curve"/>
      <point x="244" y="1069" type="line"/>
      <point x="226" y="1005"/>
      <point x="191" y="974"/>
      <point x="137" y="974" type="curve" smooth="yes"/>
      <point x="81" y="974"/>
      <point x="46" y="1005"/>
      <point x="29" y="1069" type="curve"/>
      <point x="-11" y="1069" type="line"/>
      <point x="6.81242" y="978.948"/>
      <point x="55.9614" y="931.984"/>
      <point x="134.509" y="931.984" type="curve" smooth="yes"/>
      <point x="135.336" y="931.984"/>
      <point x="136.166" y="931.99"/>
    </contour>
  </outline>
</glyph>
<glyph name="breveinvertedcomb" format="1">
  <advance width="924"/>
  <unicode hex="0311"/>
  <outline>
    <contour>
      <point x="317" y="937" type="curve"/>
      <point x="360" y="937" type="line"/>
      <point x="377" y="999"/>
      <point x="412" y="1030"/>
      <point x="467" y="1030" type="curve" smooth="yes"/>
      <point x="520" y="1030"/>
      <point x="555" y="999"/>
      <point x="573" y="937" type="curve"/>
      <point x="614" y="937" type="line"/>
      <point x="599" y="1029"/>
      <point x="549" y="1076"/>
      <point x="467" y="1075" type="curve" smooth="yes"/>
      <point x="386" y="1076"/>
      <point x="335" y="1029"/>
    </contour>
  </outline>
</glyph>
<glyph name="quoteleft" format="1">
  <advance width="410"/>
  <unicode hex="2018"/>
  <outline>
    <contour>
      <point x="134" y="1026" type="line"/>
      <point x="235" y="1026" type="line"/>
      <point x="235" y="1124" type="line"/>
      <point x="188" y="1124" type="line"/>
      <point x="188" y="1126.51"/>
      <point x="187.999" y="1128.96"/>
      <point x="187.999" y="1131.36" type="curve" smooth="yes"/>
      <point x="187.999" y="1204.46"/>
      <point x="188.937" y="1226.76"/>
      <point x="248" y="1250" type="curve"/>
      <point x="248" y="1283" type="line"/>
      <point x="160" y="1282"/>
      <point x="134" y="1207"/>
      <point x="134" y="1126" type="curve" smooth="yes"/>
    </contour>
  </outline>
</glyph>
<glyph name="quoteright" format="1">
  <advance width="419"/>
  <unicode hex="2019"/>
  <outline>
    <contour>
      <point x="174" y="1004" type="line"/>
      <point x="262" y="1005"/>
      <point x="288" y="1081"/>
      <point x="288" y="1161" type="curve" smooth="yes"/>
      <point x="288" y="1261" type="line"/>
      <point x="187" y="1261" type="line"/>
      <point x="187" y="1165" type="line"/>
      <point x="233" y="1165" type="line"/>
      <point x="233" y="1160.14"/>
      <point x="233.008" y="1155.48"/>
      <point x="233.008" y="1151.01" type="curve" smooth="yes"/>
      <point x="233.008" y="1082.82"/>
      <point x="231.246" y="1058.71"/>
      <point x="174" y="1039" type="curve"/>
    </contour>
  </outline>
</glyph>
<glyph name="quotesinglbase" format="1">
  <advance width="414"/>
  <unicode hex="201A"/>
  <outline>
    <contour>
      <point x="179" y="-166" type="line"/>
      <point x="268" y="-165"/>
      <point x="293" y="-89"/>
      <point x="292" y="-8" type="curve"/>
      <point x="292" y="91" type="line"/>
      <point x="191" y="91" type="line"/>
      <point x="191" y="-7" type="line"/>
      <point x="239" y="-7" type="line"/>
      <point x="238" y="-85"/>
      <point x="239" y="-110"/>
      <point x="179" y="-132" type="curve"/>
    </contour>
  </outline>
</glyph>
<glyph name="quotedblleft" format="1">
  <advance width="662"/>
  <unicode hex="201C"/>
  <outline>
    <contour>
      <point x="172" y="1026" type="line"/>
      <point x="273" y="1026" type="line"/>
      <point x="273" y="1124" type="line"/>
      <point x="227" y="1124" type="line"/>
      <point x="227" y="1128.86"/>
      <point x="226.992" y="1133.51"/>
      <point x="226.992" y="1137.96" type="curve" smooth="yes"/>
      <point x="226.992" y="1205.83"/>
      <point x="228.754" y="1227.48"/>
      <point x="286" y="1250" type="curve"/>
      <point x="286" y="1283" type="line"/>
      <point x="198" y="1282"/>
      <point x="172" y="1207"/>
      <point x="172" y="1126" type="curve" smooth="yes"/>
    </contour>
    <contour>
      <point x="367" y="1026" type="line"/>
      <point x="468" y="1026" type="line"/>
      <point x="468" y="1124" type="line"/>
      <point x="422" y="1124" type="line"/>
      <point x="422" y="1126.55"/>
      <point x="421.999" y="1129.04"/>
      <point x="421.999" y="1131.47" type="curve" smooth="yes"/>
      <point x="421.999" y="1204.48"/>
      <point x="422.935" y="1226.77"/>
      <point x="481" y="1250" type="curve"/>
      <point x="481" y="1283" type="line"/>
      <point x="393" y="1282"/>
      <point x="367" y="1207"/>
      <point x="367" y="1126" type="curve" smooth="yes"/>
    </contour>
  </outline>
</glyph>
